<svg data-v-423bf9ae="" xmlns="http://www.w3.org/2000/svg" viewBox="0 0 374 90" class="iconLeft"><!----><!----><!----><g data-v-423bf9ae="" id="250c2c62-4039-457f-a4e6-6b03fe377041" fill="white" transform="matrix(6.054490506946714,0,0,6.054490506946714,116.88092382082763,10.761857849800698)"><path d="M3.78 7.38L3.99 7.38L5.49 10.50L9.07 10.50L7.24 6.68C8.12 6.03 8.61 5.03 8.61 4.10C8.61 1.67 6.55 0.70 5.04 0.70L0.35 0.70L0.35 10.50L3.78 10.50ZM4.06 3.33C4.55 3.33 4.98 3.56 4.98 4.07C4.98 4.56 4.54 4.76 4.07 4.76L3.78 4.76L3.78 3.33ZM10.79 3.54L10.79 10.50L14.38 10.50L14.38 3.54L15.78 3.54L15.78 0.70L9.39 0.70L9.39 3.54ZM15.53 9.14C15.53 9.95 16.18 10.61 17.00 10.61C17.81 10.61 18.47 9.95 18.47 9.14C18.47 8.33 17.81 7.67 17.00 7.67C16.18 7.67 15.53 8.33 15.53 9.14ZM24.54 4.48L22.88 0.70L19.11 0.70L19.11 10.50L22.69 10.50L22.69 6.66L24.39 10.50L28.13 10.50L28.13 0.70L24.54 0.70ZM28.83 10.50L35.35 10.50L35.35 7.66L32.41 7.66L32.41 6.75L34.99 6.75L34.99 4.35L32.41 4.35L32.41 3.54L35.21 3.54L35.21 0.70L28.83 0.70ZM37.37 3.54L37.37 10.50L40.95 10.50L40.95 3.54L42.35 3.54L42.35 0.70L35.97 0.70L35.97 3.54Z"></path></g><!----><g data-v-423bf9ae="" id="4ac21ce7-8c1e-479d-9572-e4f4150bdb2a" transform="matrix(1.1111111111111112,0,0,1.1111111111111112,-5.022221353318962,-3.3333333333333357)" stroke="none" fill="white"><path d="M4.7 84h89.1V11.1H53.3v8.1h32.4v56.699H12.8V51.601H4.7z"></path><path d="M37.1 3H4.7v16.2h8.1v-8.1h8.099v24.3H12.8v8.1H37.1v-8.1H29V11.1h8.1v8.1h8.1V3z"></path></g><!----></svg>